<svg xmlns="http://www.w3.org/2000/svg" width="1200" height="800" viewBox="0 0 1200 800" role="img" aria-label="GlowUp Beauty desktop preview">
  <defs>
    <linearGradient id="bg" x1="0" y1="0" x2="1" y2="1">
      <stop offset="0" stop-color="#fff1e7" />
      <stop offset="1" stop-color="#f8f4ef" />
    </linearGradient>
    <linearGradient id="hero" x1="0" y1="0" x2="1" y2="1">
      <stop offset="0" stop-color="#f2b190" />
      <stop offset="1" stop-color="#e77a66" />
    </linearGradient>
  </defs>
  <rect width="1200" height="800" fill="url(#bg)" />
  <rect x="80" y="60" width="1040" height="84" rx="24" fill="#ffffff" opacity="0.95" />
  <text x="120" y="112" font-family="'Fraunces', serif" font-size="32" fill="#2a201c">GlowUp Beauty</text>
  <rect x="80" y="180" width="1040" height="260" rx="32" fill="url(#hero)" />
  <text x="130" y="270" font-family="'Fraunces', serif" font-size="48" fill="#fff8f2">Discover Your Best Skin</text>
  <text x="130" y="320" font-family="'Outfit', Arial, sans-serif" font-size="20" fill="#fff8f2">Skincare guides, routines, and wellness tips.</text>
  <rect x="80" y="470" width="520" height="220" rx="24" fill="#ffffff" />
  <rect x="110" y="510" width="220" height="12" rx="6" fill="#e77a66" />
  <rect x="110" y="532" width="360" height="10" rx="5" fill="#ead7c8" />
  <rect x="640" y="470" width="480" height="220" rx="24" fill="#ffffff" />
  <rect x="670" y="510" width="200" height="12" rx="6" fill="#e77a66" />
  <rect x="670" y="532" width="320" height="10" rx="5" fill="#ead7c8" />
  <text x="80" y="740" font-family="'Outfit', Arial, sans-serif" font-size="14" fill="#8f817a">GlowUp Beauty desktop preview</text>
</svg>
